<?xml version="1.0" encoding="utf-8"?>
<svg viewBox="0 0 100 50" xmlns="http://www.w3.org/2000/svg">
  <path d="M 14.575 10.345 L 16.656 10.345 C 18.255 10.345 19.258 12.081 18.458 13.466 C 18.085 14.11 17.398 14.507 16.656 14.507 L 14.575 14.507 L 14.575 16.586 C 14.575 18.189 12.841 19.189 11.453 18.389 C 10.808 18.02 10.415 17.332 10.415 16.586 L 10.415 14.507 L 8.333 14.507 C 6.731 14.507 5.73 12.773 6.53 11.384 C 6.9 10.742 7.588 10.345 8.333 10.345 L 10.415 10.345 L 10.415 8.265 C 10.415 6.661 12.147 5.663 13.534 6.462 C 14.177 6.834 14.575 7.522 14.575 8.265 L 14.575 10.345 Z M 12.494 -0.058 L 37.463 -0.058 C 47.071 -0.058 53.079 10.345 48.274 18.667 C 44.024 26.029 33.822 27.083 28.157 20.748 L 21.799 20.748 C 15.388 27.912 3.634 25.454 0.633 16.322 C -2.021 8.251 3.996 -0.058 12.494 -0.058 Z M 12.494 4.102 C 6.085 4.102 2.081 11.042 5.286 16.586 C 8.118 21.496 14.921 22.198 18.699 17.973 L 19.938 16.586 L 30.018 16.586 L 31.259 17.973 C 35.527 22.751 43.367 21.112 45.369 15.026 C 47.137 9.644 43.128 4.102 37.463 4.102 L 12.494 4.102 Z M 37.463 10.345 C 35.861 10.345 34.86 8.612 35.66 7.225 C 36.032 6.58 36.717 6.183 37.463 6.183 C 39.062 6.183 40.065 7.918 39.263 9.305 C 38.892 9.95 38.206 10.345 37.463 10.345 Z M 33.301 14.507 C 31.699 14.507 30.698 12.773 31.499 11.384 C 31.87 10.742 32.555 10.345 33.301 10.345 C 34.9 10.345 35.903 12.081 35.102 13.466 C 34.73 14.11 34.043 14.507 33.301 14.507 Z M 41.623 14.507 C 40.024 14.507 39.02 12.773 39.823 11.384 C 40.193 10.742 40.877 10.345 41.623 10.345 C 43.223 10.345 44.227 12.081 43.424 13.466 C 43.052 14.11 42.369 14.507 41.623 14.507 Z M 37.463 18.667 C 35.861 18.667 34.86 16.933 35.66 15.547 C 36.032 14.903 36.717 14.507 37.463 14.507 C 39.062 14.507 40.065 16.243 39.263 17.629 C 38.892 18.272 38.206 18.667 37.463 18.667 Z" style="" transform="matrix(1, 0, 0, 1, 3.552713678800501e-15, 3.552713678800501e-15)"/>
  <path d="M 64.538 35.361 L 66.618 35.361 C 68.218 35.361 69.222 37.095 68.419 38.482 C 68.047 39.128 67.359 39.522 66.618 39.522 L 64.538 39.522 L 64.538 41.602 C 64.538 43.206 62.802 44.207 61.415 43.404 C 60.769 43.036 60.376 42.349 60.376 41.602 L 60.376 39.522 L 58.295 39.522 C 56.692 39.522 55.691 37.79 56.494 36.401 C 56.865 35.76 57.549 35.361 58.295 35.361 L 60.376 35.361 L 60.376 33.281 C 60.376 31.68 62.108 30.677 63.498 31.479 C 64.141 31.852 64.538 32.539 64.538 33.281 L 64.538 35.361 Z M 62.456 24.958 L 87.425 24.958 C 97.032 24.958 103.041 35.361 98.237 43.685 C 93.987 51.046 83.784 52.101 78.12 45.765 L 71.76 45.765 C 65.355 52.929 53.595 50.469 50.594 41.339 C 47.943 33.264 53.957 24.958 62.456 24.958 Z M 62.456 29.12 C 56.049 29.12 52.046 36.055 55.248 41.602 C 58.08 46.512 64.882 47.215 68.66 42.988 L 69.901 41.602 L 79.981 41.602 L 81.22 42.988 C 85.49 47.766 93.33 46.129 95.332 40.043 C 97.1 34.66 93.09 29.12 87.425 29.12 L 62.456 29.12 Z M 87.425 35.361 C 85.823 35.361 84.821 33.628 85.623 32.239 C 85.993 31.599 86.68 31.201 87.425 31.201 C 89.025 31.201 90.027 32.935 89.226 34.32 C 88.855 34.967 88.167 35.361 87.425 35.361 Z M 83.264 39.522 C 81.662 39.522 80.66 37.79 81.461 36.401 C 81.831 35.76 82.52 35.361 83.264 35.361 C 84.865 35.361 85.867 37.095 85.065 38.482 C 84.692 39.128 84.008 39.522 83.264 39.522 Z M 91.586 39.522 C 89.983 39.522 88.982 37.79 89.785 36.401 C 90.154 35.76 90.843 35.361 91.586 35.361 C 93.186 35.361 94.189 37.095 93.389 38.482 C 93.015 39.128 92.329 39.522 91.586 39.522 Z M 87.425 43.685 C 85.823 43.685 84.821 41.951 85.623 40.561 C 85.993 39.92 86.68 39.522 87.425 39.522 C 89.025 39.522 90.027 41.258 89.226 42.644 C 88.855 43.288 88.167 43.685 87.425 43.685 Z" style="" transform="matrix(1, 0, 0, 1, 3.552713678800501e-15, 3.552713678800501e-15)"/>
</svg>